<?xml version="1.0" encoding="utf-8"?>
<!-- Generator: Adobe Illustrator 21.1.0, SVG Export Plug-In . SVG Version: 6.00 Build 0)  -->
<svg version="1.1" id="Layer_2" xmlns="http://www.w3.org/2000/svg" xmlns:xlink="http://www.w3.org/1999/xlink" x="0px" y="0px"
	 width="109px" height="33px" viewBox="0 0 109 33" style="enable-background:new 0 0 109 33;" xml:space="preserve">
<path d="M21.65,13.602c-1.665,0-3.012,1.05-3.453,2.711h6.661C24.515,14.726,23.437,13.602,21.65,13.602z M51.638,17.108
	c1.222,0,2.3-0.593,2.875-1.455v1.24h2.192v-9.29h-2.192v5.875c-0.144,0.988-1.096,1.761-2.246,1.761s-1.958-0.898-1.958-2.156
	v-5.48h-2.12v5.911C48.189,15.617,49.608,17.108,51.638,17.108z M79.657,14.431c0,1.563,1.078,2.677,2.623,2.677
	c0.701,0,1.455-0.287,1.976-0.737l-0.629-1.473c-0.198,0.198-0.539,0.341-0.916,0.341c-0.521,0-0.916-0.449-0.916-1.078V9.418h2.102
	V7.603h-2.102V5.052h-2.138v2.551H78.31v1.815h1.347V14.431z M94.1,17.108c2.695,0,4.977-2.228,4.977-4.869S96.795,7.388,94.1,7.388
	s-4.977,2.21-4.977,4.851S91.405,17.108,94.1,17.108z M94.1,9.256c1.527,0,2.821,1.365,2.821,2.982c0,1.635-1.294,3-2.821,3
	c-1.545,0-2.839-1.366-2.839-3C91.262,10.622,92.555,9.256,94.1,9.256z M85.566,16.892h2.192V7.603h-2.192V16.892z M86.68,6.202
	c0.683,0,1.24-0.593,1.24-1.258s-0.557-1.24-1.24-1.24c-0.701,0-1.258,0.575-1.258,1.24S85.98,6.202,86.68,6.202z M60.71,11.017
	c0.144-0.988,1.096-1.761,2.246-1.761s1.958,0.898,1.958,2.156v5.48h2.12v-5.911c0-2.102-1.42-3.593-3.45-3.593
	c-1.222,0-2.3,0.593-2.875,1.455v-1.24h-2.192v9.289h2.192v-5.875H60.71z M82.548,20.428c-1.222,0-2.3,0.593-2.875,1.455v-1.24
	h-2.192v9.289h2.192v-5.875c0.144-0.988,1.096-1.761,2.246-1.761s1.958,0.898,1.958,2.156v5.48h2.12v-5.911
	C85.998,21.919,84.578,20.428,82.548,20.428z M91.224,28.279c-0.521,0-0.916-0.449-0.916-1.078v-4.743h2.102v-1.815h-2.102v-2.112
	H88.17v2.112h-1.348v1.815h1.348v5.013c0,1.563,1.078,2.677,2.623,2.677c0.701,0,1.455-0.287,1.976-0.737l-0.629-1.473
	C91.943,28.135,91.602,28.279,91.224,28.279z M77.597,7.603H75.01l-4.025,4.402V4.333h-2.192v12.559h2.192v-2.318l1.312-1.383
	l2.623,3.701h2.551l-3.701-5.139L77.597,7.603z M105.55,7.388c-1.222,0-2.3,0.593-2.875,1.455v-1.24h-2.192v9.289h2.192v-5.875
	c0.144-0.988,1.096-1.761,2.246-1.761s1.959,0.898,1.959,2.156v5.48H109v-5.911C109,8.879,107.581,7.388,105.55,7.388z
	 M98.035,24.309c-1.42-0.413-1.905-0.593-1.905-1.186c0-0.521,0.593-0.826,1.365-0.826c0.809,0,1.761,0.287,2.641,0.844l0.916-1.599
	c-1.006-0.665-2.282-1.114-3.557-1.114c-2.066,0-3.503,1.186-3.503,2.929c0.018,1.653,1.294,2.228,3.306,2.749
	c1.06,0.287,1.869,0.521,1.869,1.24c0,0.575-0.611,0.952-1.491,0.952c-1.168,0-2.21-0.431-3.108-1.078l-0.988,1.527
	c1.114,0.898,2.641,1.401,4.061,1.401c2.174,0,3.647-1.15,3.647-2.929C101.287,25.279,99.598,24.74,98.035,24.309z M16.5,0
	C7.387,0,0,7.387,0,16.5S7.387,33,16.5,33S33,25.613,33,16.5S25.613,0,16.5,0z M5.734,23.46l0.953-2.103
	c1.624,0.832,2.83-0.088,2.83-1.782l-0.001-5.822H7.699v-2.449h1.818V9.995c0-4.465,4.635-5.103,6.669-3.618L15.232,8.48
	c-1.624-0.832-2.83,0.088-2.83,1.782v1.043h2.836v2.449h-2.836l0.001,6.089C12.403,24.307,7.767,24.945,5.734,23.46z M21.674,21.541
	c1.175,0,2.571-0.537,3.281-1.27l1.886,1.954c-1.102,1.172-3.306,1.954-5.143,1.954c-3.624,0-6.612-2.76-6.612-6.644
	c0-3.786,2.841-6.571,6.44-6.571c3.919,0,6.196,2.956,6.196,7.621h-9.551C18.54,20.319,19.862,21.541,21.674,21.541z M44.981,6.833
	c0-1.255,0.894-1.937,2.097-1.321l0.707-1.558c-1.507-1.101-4.942-0.627-4.942,2.682v0.97h-1.348V9.42h1.348l0.001,4.359
	c0,1.255-0.894,1.938-2.097,1.321l-0.707,1.559c1.507,1.1,4.942,0.627,4.942-2.682L44.981,9.42h2.102V7.605h-2.102V6.833z
	 M52.478,20.428c-2.641,0-4.725,2.048-4.725,4.833c0,2.857,2.192,4.887,4.851,4.887c1.348,0,2.965-0.575,3.773-1.437l-1.383-1.437
	c-0.521,0.539-1.545,0.934-2.408,0.934c-1.33,0-2.3-0.898-2.569-2.174h7.007C57.023,22.602,55.352,20.428,52.478,20.428z
	 M50.034,24.362c0.323-1.222,1.312-1.994,2.533-1.994c1.312,0,2.102,0.826,2.354,1.994H50.034z M64.569,20.643l-2.641,6.755
	l-2.695-6.755h-2.318l3.989,9.289h2.066l3.935-9.289C66.905,20.643,64.569,20.643,64.569,20.643z M71.54,20.428
	c-2.641,0-4.725,2.048-4.725,4.833c0,2.857,2.192,4.887,4.851,4.887c1.347,0,2.965-0.575,3.773-1.437l-1.384-1.437
	c-0.521,0.539-1.545,0.934-2.408,0.934c-1.329,0-2.3-0.898-2.569-2.174h7.007C76.086,22.602,74.415,20.428,71.54,20.428z
	 M69.097,24.362c0.323-1.222,1.312-1.994,2.533-1.994c1.312,0,2.102,0.826,2.354,1.994H69.097z"/>
</svg>
