<svg
  xmlns="http://www.w3.org/2000/svg"
  width="31"
  height="50"
  viewBox="0 0 31 50"
  fill="none"
>
  <g clip-path="url(#clip0_6401_7195)">
    <path
      d="M0.0227051 47.5121H2.01303V37.9022H0.0227051V35.702H6.85093V37.9022H4.83824V47.5121H6.85093V49.7123H0.0227051V47.5121Z"
      fill="#0f0f0f"
    />
    <path
      d="M12.2181 45.0548C11.7634 43.6107 11.4503 42.2951 11.2118 41.2517C11.2491 42.2724 11.2714 43.6107 11.2714 44.9339V49.7199H8.96057V35.7096H11.4056L12.7698 40.3973C13.2245 41.9397 13.5599 43.2402 13.7165 44.2836C13.9103 43.2402 14.2308 41.9397 14.6855 40.3973L16.0273 35.7096H18.4724V49.7199H16.1615V44.9339C16.1615 43.6334 16.1839 42.2951 16.2211 41.2517C16.005 42.2951 15.6472 43.6107 15.1924 45.0548L13.709 49.9996L12.2107 45.0548H12.2181Z"
      fill="#0f0f0f"
    />
    <path
      d="M24.0557 45.0548C23.6009 43.6107 23.2879 42.2951 23.0493 41.2517C23.0866 42.2724 23.109 43.6107 23.109 44.9339V49.7199H20.7981V35.7096H23.2431L24.6073 40.3973C25.062 41.9397 25.3975 43.2402 25.554 44.2836C25.7478 43.2402 26.0684 41.9397 26.5231 40.3973L27.8649 35.7096H30.3099V49.7199H27.999V44.9339C27.999 43.6334 28.0214 42.2951 28.0587 41.2517C27.8425 42.2951 27.4847 43.6107 27.03 45.0548L25.5465 49.9996L24.0482 45.0548H24.0557Z"
      fill="#0f0f0f"
    />
    <path
      d="M16.7202 12.8913L27.4173 2.92605H16.7202V12.8837V12.8913ZM13.8279 12.8913V2.92605H3.1383L13.8354 12.8837L13.8279 12.8913ZM16.7202 16.8683V24.7013L27.6632 14.5169V6.67624L16.7202 16.8607V16.8683ZM2.8923 14.5093L13.8354 24.6938V16.8607L2.8923 6.67624V14.5093ZM2.8923 28.0584H13.1794L2.8923 18.4863V28.0584ZM17.3836 28.0584H27.6707V18.4863L17.3836 28.0584ZM0 0H30.5556V30.992H0V0Z"
      fill="#0f0f0f"
    />
  </g>
  <defs>
    <clipPath id="clip0_6401_7195">
      <rect
        width="30.5556"
        height="50"
        fill="#0f0f0f"
      />
    </clipPath>
  </defs>
</svg>
